<svg width="512" height="512" viewBox="0 0 512 512" fill="none" xmlns="http://www.w3.org/2000/svg">
<rect width="512" height="512" fill="#5134F9"/>
<path d="M150.108 115.985C147.144 124.557 142.112 138.69 137.423 152.719C132.514 167.405 128.868 179.414 128.073 184.262C124.287 207.375 124.316 222.357 125.846 230.977C128.692 229.014 132.201 226.145 136.269 222.117C146.524 211.964 158.687 196.28 171.673 175.1C178.361 164.191 186.927 151.979 196.283 141.312C205.141 131.215 216.695 120.166 229.749 114.518C236.615 111.547 245.569 109.35 255.378 111.27C265.671 113.284 273.66 119.195 279.271 126.669C289.299 140.027 293.405 160.488 294.577 185.341C295.414 203.086 295.762 219.877 295.596 235.671C303.783 233.999 318.592 230.743 337.892 227.763C329.477 222.369 321.982 215.527 315.878 206.946C309.916 198.565 304.239 188.232 303.023 178.524L344.71 174.042C344.586 173.05 345.184 176.258 349.956 182.966C354.16 188.876 360.344 195.69 368.16 201.845C383.783 214.145 402.655 222.84 426.336 218.948L428.935 237.078C428.998 237.07 429.06 237.061 429.123 237.053L429.97 244.29L430.022 244.654C430.019 244.655 430.016 244.654 430.013 244.654L432.194 263.29C407.77 264.812 389.691 277.92 377.462 293.617C371.343 301.471 367.01 309.606 364.398 316.399C361.434 324.11 361.681 327.416 361.545 326.407L319.167 331.427C317.833 321.558 320.744 310.061 324.448 300.428C328.786 289.146 335.644 279.682 344.144 271.775C321.612 275.167 302.739 279.179 293.245 281.674C291.322 301.056 288.21 318.346 283.649 333.417C272.342 370.781 250.697 398.871 213.593 406.819C198.532 410.045 182.616 409.626 168.504 406.01C154.762 402.488 140.137 395.205 130.974 382.388C120.812 368.171 119.93 350.703 128.275 333.882C135.989 318.337 151.244 303.653 172.849 289.584C200.231 271.753 225.557 258.642 249.433 249.376C250.067 231.004 249.846 210.361 248.761 187.348C248.022 171.676 246.026 162.47 244.316 157.413C240.946 159.881 236.502 163.921 231.306 169.845C224.003 178.17 216.895 188.24 211.163 197.589C197.051 220.606 182.767 239.457 169.132 252.958C162.315 259.707 155.217 265.553 147.947 269.9C140.856 274.141 132.208 277.785 122.621 278.178C112.116 278.607 102.104 275.017 94.4394 267.505C87.4453 260.649 83.7131 251.847 81.664 243.473C77.6086 226.898 78.3427 204.49 82.7841 177.377C84.2521 168.415 89.2118 152.793 93.7675 139.165C98.5426 124.88 103.831 110.003 106.599 102L150.108 115.985ZM244.54 299.986C230.163 306.921 214.883 315.555 198.522 326.209C179.999 338.271 172.323 347.556 169.646 352.949C168.426 355.408 168.474 356.596 168.482 356.748C168.486 356.826 168.467 356.939 168.739 357.32C169.611 358.536 172.906 361.405 180.294 363.298C187.318 365.097 195.772 365.36 203.639 363.676C218.124 360.573 230.868 349.983 239.625 321.051C241.545 314.705 243.164 307.682 244.54 299.986Z" fill="white"/>
</svg>
