<svg width="63" height="54" viewBox="0 0 63 54" fill="none" xmlns="http://www.w3.org/2000/svg">
<path d="M12.5082 2.45996C11.9868 3.96761 11.1016 6.45344 10.2768 8.9209C9.41324 11.5041 8.77203 13.6171 8.63222 14.4697C7.96626 18.5351 7.97053 21.1705 8.23964 22.6865C8.74039 22.3413 9.35798 21.8365 10.0736 21.1279C11.8773 19.342 14.017 16.583 16.3012 12.8574C17.4775 10.9388 18.9837 8.79102 20.6293 6.91504C22.1873 5.13895 24.22 3.19579 26.516 2.20215C27.7237 1.67964 29.2985 1.29326 31.0238 1.63086C32.8342 1.98522 34.24 3.02425 35.2269 4.33887C36.9907 6.68853 37.7132 10.2877 37.9193 14.6592C38.0665 17.7804 38.1273 20.7338 38.098 23.5117C39.5386 23.2175 42.1451 22.6465 45.5414 22.1221C44.0601 21.1731 42.7399 19.9703 41.6654 18.46C40.6167 16.9857 39.6185 15.1675 39.4047 13.46L46.7377 12.6719C46.7158 12.4971 46.8204 13.0615 47.6596 14.2412C48.3991 15.2808 49.4869 16.48 50.8617 17.5625C53.6097 19.7261 56.9298 21.2549 61.0951 20.5703L61.5521 23.7588C61.5631 23.7573 61.5744 23.7564 61.5853 23.7549L61.7338 25.0244L61.7436 25.0918H61.7416L62.1254 28.3701C57.8292 28.6378 54.6496 30.9441 52.4984 33.7051C51.4223 35.0864 50.66 36.517 50.2006 37.7119C49.6791 39.0683 49.7227 39.6493 49.6986 39.4717L42.2445 40.3555C42.0098 38.6196 42.5217 36.5969 43.1732 34.9023C43.9363 32.9178 45.1428 31.253 46.6381 29.8623C42.6747 30.4589 39.355 31.1647 37.685 31.6035C37.3468 35.0127 36.7996 38.0541 35.9975 40.7051C34.0086 47.2772 30.2008 52.2181 23.6742 53.6162C21.0251 54.1836 18.2259 54.1097 15.7436 53.4736C13.3266 52.8542 10.7538 51.5737 9.14199 49.3193C7.3547 46.8188 7.19949 43.7457 8.66738 40.7871C10.0242 38.0529 12.7073 35.4697 16.5072 32.9951C21.3237 29.8587 25.7794 27.5528 29.9789 25.9229C30.0905 22.6914 30.0516 19.0604 29.8607 15.0127C29.7307 12.2563 29.3791 10.6367 29.0785 9.74707C28.4858 10.1811 27.7044 10.8918 26.7904 11.9336C25.506 13.3979 24.2556 15.1691 23.2475 16.8135C20.7653 20.862 18.2524 24.178 15.8539 26.5527C14.6549 27.7398 13.406 28.7684 12.1273 29.5332C10.8802 30.279 9.35917 30.9192 7.67324 30.9883C5.82556 31.0639 4.06437 30.4326 2.71621 29.1113C1.48611 27.9055 0.8296 26.3576 0.469137 24.8848C-0.244161 21.9695 -0.115735 18.0277 0.665426 13.2588C0.923648 11.6825 1.79671 8.93427 2.59804 6.53711C3.43795 4.02456 4.36804 1.40763 4.85488 0L12.5082 2.45996ZM29.1176 34.8252C26.5889 36.0449 23.9014 37.5636 21.0238 39.4375C17.766 41.559 16.4156 43.192 15.9447 44.1406C15.7311 44.5712 15.7381 44.7804 15.7396 44.8086C15.7403 44.8222 15.7369 44.8424 15.7846 44.9092C15.938 45.1231 16.5182 45.628 17.8178 45.9609C19.0532 46.2773 20.5397 46.3236 21.9232 46.0273C24.4711 45.4816 26.7131 43.6191 28.2533 38.5303C28.5911 37.4142 28.8756 36.1788 29.1176 34.8252Z" fill="black"/>
</svg>