<svg width="254" height="82" viewBox="0 0 254 82" fill="none" xmlns="http://www.w3.org/2000/svg">
<path d="M4.14 16.16H13.56V51.08H34.44V59H4.14V16.16ZM46.3664 43.52C46.3664 44.76 46.4864 45.98 46.7264 47.18C46.9664 48.34 47.3664 49.4 47.9264 50.36C48.5264 51.28 49.3064 52.02 50.2664 52.58C51.2264 53.14 52.4264 53.42 53.8664 53.42C55.3064 53.42 56.5064 53.14 57.4664 52.58C58.4664 52.02 59.2464 51.28 59.8064 50.36C60.4064 49.4 60.8264 48.34 61.0664 47.18C61.3064 45.98 61.4264 44.76 61.4264 43.52C61.4264 42.28 61.3064 41.06 61.0664 39.86C60.8264 38.66 60.4064 37.6 59.8064 36.68C59.2464 35.76 58.4664 35.02 57.4664 34.46C56.5064 33.86 55.3064 33.56 53.8664 33.56C52.4264 33.56 51.2264 33.86 50.2664 34.46C49.3064 35.02 48.5264 35.76 47.9264 36.68C47.3664 37.6 46.9664 38.66 46.7264 39.86C46.4864 41.06 46.3664 42.28 46.3664 43.52ZM37.8464 43.52C37.8464 41.04 38.2264 38.8 38.9864 36.8C39.7464 34.76 40.8264 33.04 42.2264 31.64C43.6264 30.2 45.3064 29.1 47.2664 28.34C49.2264 27.54 51.4264 27.14 53.8664 27.14C56.3064 27.14 58.5064 27.54 60.4664 28.34C62.4664 29.1 64.1664 30.2 65.5664 31.64C66.9664 33.04 68.0464 34.76 68.8064 36.8C69.5664 38.8 69.9464 41.04 69.9464 43.52C69.9464 46 69.5664 48.24 68.8064 50.24C68.0464 52.24 66.9664 53.96 65.5664 55.4C64.1664 56.8 62.4664 57.88 60.4664 58.64C58.5064 59.4 56.3064 59.78 53.8664 59.78C51.4264 59.78 49.2264 59.4 47.2664 58.64C45.3064 57.88 43.6264 56.8 42.2264 55.4C40.8264 53.96 39.7464 52.24 38.9864 50.24C38.2264 48.24 37.8464 46 37.8464 43.52ZM90.7861 62.84C89.8661 65.36 88.5861 67.16 86.9461 68.24C85.3061 69.32 83.0261 69.86 80.1061 69.86C79.2261 69.86 78.3461 69.82 77.4661 69.74C76.6261 69.7 75.7661 69.64 74.8861 69.56V62.54C75.6861 62.62 76.5061 62.7 77.3461 62.78C78.1861 62.86 79.0261 62.88 79.8661 62.84C80.9861 62.72 81.8061 62.28 82.3261 61.52C82.8861 60.76 83.1661 59.92 83.1661 59C83.1661 58.32 83.0461 57.68 82.8061 57.08L71.9461 27.98H81.0061L88.0261 49.22H88.1461L94.9261 27.98H103.746L90.7861 62.84ZM106.239 37.52C106.359 35.52 106.859 33.86 107.739 32.54C108.619 31.22 109.739 30.16 111.099 29.36C112.459 28.56 113.979 28 115.659 27.68C117.379 27.32 119.099 27.14 120.819 27.14C122.379 27.14 123.959 27.26 125.559 27.5C127.159 27.7 128.619 28.12 129.939 28.76C131.259 29.4 132.339 30.3 133.179 31.46C134.019 32.58 134.439 34.08 134.439 35.96V52.1C134.439 53.5 134.519 54.84 134.679 56.12C134.839 57.4 135.119 58.36 135.519 59H126.879C126.719 58.52 126.579 58.04 126.459 57.56C126.379 57.04 126.319 56.52 126.279 56C124.919 57.4 123.319 58.38 121.479 58.94C119.639 59.5 117.759 59.78 115.839 59.78C114.359 59.78 112.979 59.6 111.699 59.24C110.419 58.88 109.299 58.32 108.339 57.56C107.379 56.8 106.619 55.84 106.059 54.68C105.539 53.52 105.279 52.14 105.279 50.54C105.279 48.78 105.579 47.34 106.179 46.22C106.819 45.06 107.619 44.14 108.579 43.46C109.579 42.78 110.699 42.28 111.939 41.96C113.219 41.6 114.499 41.32 115.779 41.12C117.059 40.92 118.319 40.76 119.559 40.64C120.799 40.52 121.899 40.34 122.859 40.1C123.819 39.86 124.579 39.52 125.139 39.08C125.699 38.6 125.959 37.92 125.919 37.04C125.919 36.12 125.759 35.4 125.439 34.88C125.159 34.32 124.759 33.9 124.239 33.62C123.759 33.3 123.179 33.1 122.499 33.02C121.859 32.9 121.159 32.84 120.399 32.84C118.719 32.84 117.399 33.2 116.439 33.92C115.479 34.64 114.919 35.84 114.759 37.52H106.239ZM125.919 43.82C125.559 44.14 125.099 44.4 124.539 44.6C124.019 44.76 123.439 44.9 122.799 45.02C122.199 45.14 121.559 45.24 120.879 45.32C120.199 45.4 119.519 45.5 118.839 45.62C118.199 45.74 117.559 45.9 116.919 46.1C116.319 46.3 115.779 46.58 115.299 46.94C114.859 47.26 114.499 47.68 114.219 48.2C113.939 48.72 113.799 49.38 113.799 50.18C113.799 50.94 113.939 51.58 114.219 52.1C114.499 52.62 114.879 53.04 115.359 53.36C115.839 53.64 116.399 53.84 117.039 53.96C117.679 54.08 118.339 54.14 119.019 54.14C120.699 54.14 121.999 53.86 122.919 53.3C123.839 52.74 124.519 52.08 124.959 51.32C125.399 50.52 125.659 49.72 125.739 48.92C125.859 48.12 125.919 47.48 125.919 47V43.82ZM141.293 16.16H149.813V59H141.293V16.16ZM158.381 33.68H153.281V27.98H158.381V25.58C158.381 22.82 159.241 20.56 160.961 18.8C162.681 17.04 165.281 16.16 168.761 16.16C169.521 16.16 170.281 16.2 171.041 16.28C171.801 16.32 172.541 16.36 173.261 16.4V22.76C172.261 22.64 171.221 22.58 170.141 22.58C168.981 22.58 168.141 22.86 167.621 23.42C167.141 23.94 166.901 24.84 166.901 26.12V27.98H172.781V33.68H166.901V59H158.381V33.68ZM177.941 16.16H186.461V59H177.941V16.16Z" fill="black"/>
<path d="M203.508 30.46C202.987 31.9676 202.102 34.4534 201.277 36.9209C200.413 39.5041 199.772 41.6171 199.632 42.4697C198.966 46.5351 198.971 49.1705 199.24 50.6865C199.74 50.3413 200.358 49.8365 201.074 49.1279C202.877 47.342 205.017 44.583 207.301 40.8574C208.478 38.9388 209.984 36.791 211.629 34.915C213.187 33.1389 215.22 31.1958 217.516 30.2021C218.724 29.6796 220.299 29.2933 222.024 29.6309C223.834 29.9852 225.24 31.0243 226.227 32.3389C227.991 34.6885 228.713 38.2877 228.919 42.6592C229.067 45.7804 229.127 48.7338 229.098 51.5117C230.539 51.2175 233.145 50.6465 236.541 50.1221C235.06 49.1731 233.74 47.9703 232.665 46.46C231.617 44.9857 230.619 43.1675 230.405 41.46L237.738 40.6719C237.716 40.4971 237.82 41.0615 238.66 42.2412C239.399 43.2808 240.487 44.48 241.862 45.5625C244.61 47.7261 247.93 49.2549 252.095 48.5703L252.552 51.7588C252.563 51.7573 252.574 51.7564 252.585 51.7549L252.734 53.0244L252.744 53.0918H252.742L253.125 56.3701C248.829 56.6378 245.65 58.9441 243.498 61.7051C242.422 63.0864 241.66 64.517 241.201 65.7119C240.679 67.0683 240.723 67.6493 240.699 67.4717L233.245 68.3555C233.01 66.6196 233.522 64.5969 234.173 62.9023C234.936 60.9178 236.143 59.253 237.638 57.8623C233.675 58.4589 230.355 59.1647 228.685 59.6035C228.347 63.0127 227.8 66.0541 226.997 68.7051C225.009 75.2772 221.201 80.2181 214.674 81.6162C212.025 82.1836 209.226 82.1097 206.744 81.4736C204.327 80.8542 201.754 79.5737 200.142 77.3193C198.355 74.8188 198.199 71.7457 199.667 68.7871C201.024 66.0529 203.707 63.4697 207.507 60.9951C212.324 57.8587 216.779 55.5528 220.979 53.9229C221.09 50.6914 221.052 47.0604 220.861 43.0127C220.731 40.2563 220.379 38.6367 220.079 37.7471C219.486 38.1811 218.704 38.8918 217.79 39.9336C216.506 41.3979 215.256 43.1691 214.247 44.8135C211.765 48.862 209.252 52.178 206.854 54.5527C205.655 55.7398 204.406 56.7684 203.127 57.5332C201.88 58.279 200.359 58.9192 198.673 58.9883C196.826 59.0639 195.064 58.4326 193.716 57.1113C192.486 55.9055 191.83 54.3576 191.469 52.8848C190.756 49.9695 190.884 46.0277 191.665 41.2588C191.924 39.6825 192.797 36.9343 193.598 34.5371C194.438 32.0246 195.368 29.4076 195.855 28L203.508 30.46ZM220.118 62.8252C217.589 64.0449 214.901 65.5636 212.024 67.4375C208.766 69.559 207.416 71.192 206.945 72.1406C206.731 72.5712 206.738 72.7804 206.74 72.8086C206.74 72.8222 206.737 72.8424 206.785 72.9092C206.938 73.1231 207.518 73.628 208.818 73.9609C210.053 74.2773 211.54 74.3236 212.923 74.0273C215.471 73.4816 217.713 71.6191 219.253 66.5303C219.591 65.4142 219.876 64.1788 220.118 62.8252Z" fill="black"/>
</svg>